HIERARCHY
ROOT Hips
{
	OFFSET 0.000000 0.000000 0.000000
	CHANNELS 6 Xposition Yposition Zposition Zrotation Yrotation Xrotation 
	JOINT LHipJoint
	{
		OFFSET 0.000000 0.000000 0.000000
		CHANNELS 3 Zrotation Yrotation Xrotation
		JOINT LeftUpLeg
		{
			OFFSET 1.363060 -1.794630 0.839290
			CHANNELS 3 Zrotation Yrotation Xrotation
			JOINT LeftLeg
			{
				OFFSET 2.448110 -6.726130 0.000000
				CHANNELS 3 Zrotation Yrotation Xrotation
				JOINT LeftFoot
				{
					OFFSET 2.562200 -7.039590 0.000000
					CHANNELS 3 Zrotation Yrotation Xrotation
					JOINT LeftToeBase
					{
						OFFSET 0.157640 -0.433110 2.322550
						CHANNELS 3 Zrotation Yrotation Xrotation
						End Site
						{
							OFFSET 0.000000 0.000000 0.000000
						}
					}
				}
			}
		}
	}
	JOINT RHipJoint
	{
		OFFSET 0.000000 0.000000 0.000000
		CHANNELS 3 Zrotation Yrotation Xrotation
		JOINT RightUpLeg
		{
			OFFSET -1.305520 -1.794630 0.839290
			CHANNELS 3 Zrotation Yrotation Xrotation
			JOINT RightLeg
			{
				OFFSET -2.542530 -6.985550 0.000000
				CHANNELS 3 Zrotation Yrotation Xrotation
				JOINT RightFoot
				{
					OFFSET -2.568260 -7.056230 0.000000
					CHANNELS 3 Zrotation Yrotation Xrotation
					JOINT RightToeBase
					{
						OFFSET -0.164730 -0.452590 2.363150
						CHANNELS 3 Zrotation Yrotation Xrotation
						End Site
						{
							OFFSET 0.000000 0.000000 0.000000
						}
					}
				}
			}
		}
	}
	JOINT LowerBack
	{
		OFFSET 0.000000 0.000000 0.000000
		CHANNELS 3 Zrotation Yrotation Xrotation
		JOINT Spine
		{
			OFFSET 0.028270 2.035590 -0.193380
			CHANNELS 3 Zrotation Yrotation Xrotation
			JOINT Spine1
			{
				OFFSET 0.056720 2.048850 -0.042750
				CHANNELS 3 Zrotation Yrotation Xrotation
				JOINT Neck
				{
					OFFSET 0.000000 0.000000 0.000000
					CHANNELS 3 Zrotation Yrotation Xrotation
					JOINT Neck1
					{
						OFFSET -0.054170 1.746240 0.172020
						CHANNELS 3 Zrotation Yrotation Xrotation
						JOINT Head
						{
							OFFSET 0.104070 1.761360 -0.123970
							CHANNELS 3 Zrotation Yrotation Xrotation
							End Site
							{
								OFFSET 0.000000 0.000000 0.000000
							}
						}
					}
				}
				JOINT LeftShoulder
				{
					OFFSET 0.000000 0.000000 0.000000
					CHANNELS 3 Zrotation Yrotation Xrotation
					JOINT LeftArm
					{
						OFFSET 3.362410 1.200890 -0.311210
						CHANNELS 3 Zrotation Yrotation Xrotation
						JOINT LeftForeArm
						{
							OFFSET 4.983000 -0.000000 -0.000000
							CHANNELS 3 Zrotation Yrotation Xrotation
							JOINT LeftHand
							{
								OFFSET 3.483560 -0.000000 -0.000000
								CHANNELS 3 Zrotation Yrotation Xrotation
								JOINT LeftFingerBase
								{
									OFFSET 0.000000 0.000000 0.000000
									CHANNELS 3 Zrotation Yrotation Xrotation
									JOINT LeftHandIndex1
									{
										OFFSET 0.715260 -0.000000 -0.000000
										CHANNELS 3 Zrotation Yrotation Xrotation
										End Site
										{
											OFFSET 0.000000 0.000000 0.000000
										}
									}
								}
								JOINT LThumb
								{
									OFFSET 0.000000 0.000000 0.000000
									CHANNELS 3 Zrotation Yrotation Xrotation
									End Site
									{
										OFFSET 0.000000 0.000000 0.000000
									}
								}
							}
						}
					}
				}
				JOINT RightShoulder
				{
					OFFSET 0.000000 0.000000 0.000000
					CHANNELS 3 Zrotation Yrotation Xrotation
					JOINT RightArm
					{
						OFFSET -3.136600 1.374050 -0.404650
						CHANNELS 3 Zrotation Yrotation Xrotation
						JOINT RightForeArm
						{
							OFFSET -5.241900 -0.000000 -0.000000
							CHANNELS 3 Zrotation Yrotation Xrotation
							JOINT RightHand
							{
								OFFSET -3.444170 -0.000000 -0.000000
								CHANNELS 3 Zrotation Yrotation Xrotation
								JOINT RightFingerBase
								{
									OFFSET 0.000000 0.000000 0.000000
									CHANNELS 3 Zrotation Yrotation Xrotation
									JOINT RightHandIndex1
									{
										OFFSET -0.622530 -0.000000 -0.000000
										CHANNELS 3 Zrotation Yrotation Xrotation
										End Site
										{
											OFFSET 0.000000 0.000000 0.000000
										}
									}
								}
								JOINT RThumb
								{
									OFFSET 0.000000 0.000000 0.000000
									CHANNELS 3 Zrotation Yrotation Xrotation
									End Site
									{
										OFFSET 0.000000 0.000000 0.000000
									}
								}
							}
						}
					}
				}
			}
		}
	}
}
MOTION
Frames: 4
Frame Time: 0.008333
-2.067850 17.094945 -0.307497 17.414218 75.528240 28.622822 -9.710249 1.165295 4.140204 -11.572009 -3.229402 -31.523779 -2.993040 -0.080386 13.739996 -0.615420 -5.193973 3.317360 -0.576300 0.000000 -33.518401 10.312052 -3.795473 0.963783 5.858299 -3.117856 -4.952950 1.488521 -2.322652 33.050333 1.292334 15.283997 1.150831 1.794600 0.000000 -48.108900 -1.336543 2.116672 -6.532546 -1.324718 1.918740 -3.881151 -6.793117 1.868278 1.891905 10.197466 -7.106392 -9.421817 -3.569428 -0.266784 -0.477404 0.000000 0.000000 0.000000 -5.767181 25.969979 0.707261 -63.687873 12.623251 -16.861903 -2.784053 -42.173498 0.009614 10.119818 0.557054 0.055675 -0.147230 -0.053087 -0.000000 0.000000 0.000000 0.000000 0.000000 0.000000 0.000000 17.072699 1.292167 -0.783227 71.628302 13.236401 5.812313 2.420160 44.005844 0.006488 -1.375731 7.201820 -0.092794 0.074026 -0.234406 -0.000000 0.000000 0.000000 0.000000 0.000000 0.000000 0.000000 
-1.937285 17.098953 -0.277738 18.301856 75.093551 29.350809 -9.686886 1.270772 4.071736 -12.136260 -2.798364 -30.977039 -3.069883 -0.078640 13.936214 -0.635892 -5.459367 2.877895 -0.586599 -0.000000 -32.281500 10.494734 -3.821823 0.912977 5.283552 -3.689017 -6.059378 1.189043 -2.510430 35.492819 1.202534 15.083446 2.824845 2.205200 0.000000 -50.518700 -1.593364 1.977448 -6.481175 -1.363429 1.808592 -3.869813 -6.778994 1.756017 1.897405 10.261108 -7.303470 -9.457997 -3.589376 -0.267872 -0.487598 0.000000 0.000000 0.000000 -5.644394 25.639279 0.693631 -63.747008 12.177685 -16.539590 -2.769488 -42.401965 0.009236 10.158741 0.480630 0.048685 -0.146916 -0.049492 -0.000000 0.000000 0.000000 0.000000 0.000000 0.000000 0.000000 17.310691 0.971772 -0.743563 71.974499 12.776399 5.766653 2.461771 43.079935 0.006354 -1.460651 7.042967 -0.096222 0.076389 -0.227167 -0.000000 0.000000 0.000000 0.000000 0.000000 0.000000 0.000000 
-1.808743 17.102123 -0.247882 19.090184 74.640605 30.002763 -9.658892 1.373559 4.027707 -12.652392 -2.458825 -30.419409 -3.141112 -0.085644 14.067343 -0.647588 -5.641972 2.415466 -0.578299 0.000000 -31.104400 10.675388 -3.826036 0.853826 4.738388 -4.309393 -7.273762 0.883260 -2.681428 37.996131 1.086910 14.705814 4.530869 2.598100 0.000000 -52.608601 -1.836285 1.828961 -6.441266 -1.398164 1.687271 -3.859415 -6.762250 1.632555 1.905630 10.321508 -7.500030 -9.497978 -3.608940 -0.268889 -0.498754 0.000000 0.000000 0.000000 -5.533321 25.314556 0.679960 -63.799221 11.698072 -16.145722 -2.753526 -42.670628 0.008854 10.190613 0.388604 0.040197 -0.146655 -0.045696 -0.000000 0.000000 0.000000 0.000000 0.000000 0.000000 0.000000 17.543500 0.645940 -0.704283 72.284948 12.303609 5.760470 2.500861 42.196369 0.006296 -1.513605 6.882106 -0.097452 0.078320 -0.219932 -0.000000 0.000000 0.000000 0.000000 0.000000 0.000000 0.000000 
-1.682098 17.104717 -0.218023 19.754891 74.170711 30.554136 -9.629138 1.473399 4.003777 -13.120805 -2.185213 -29.865214 -3.205080 -0.099221 14.150895 -0.649514 -5.731760 1.941282 -0.553300 0.000000 -30.056900 10.847973 -3.806593 0.789221 4.242324 -4.956342 -8.575357 0.577869 -2.833959 40.530402 0.943737 14.070637 6.200461 2.922800 0.000000 -54.281901 -2.055658 1.672721 -6.411900 -1.427181 1.555402 -3.850402 -6.744251 1.498510 1.913892 10.377810 -7.698450 -9.539466 -3.628577 -0.269914 -0.510156 0.000000 0.000000 0.000000 -5.446537 24.982833 0.665297 -63.828900 11.205561 -15.677670 -2.735229 -42.992247 0.008465 10.219567 0.295226 0.031512 -0.146411 -0.041852 -0.000000 0.000000 0.000000 0.000000 0.000000 0.000000 0.000000 17.771391 0.312135 -0.664053 72.557156 11.820553 5.796549 2.538645 41.349284 0.006323 -1.536318 6.732462 -0.096780 0.079899 -0.212779 -0.000000 0.000000 0.000000 0.000000 0.000000 0.000000 0.000000 
